<svg xmlns="http://www.w3.org/2000/svg" xmlns:xlink="http://www.w3.org/1999/xlink" width="24" height="24" viewBox="0 0 24 24">
    <defs>
        <path id="a" d="M15.977 14.472h-.79l-.28-.27a6.5 6.5 0 0 0 1.48-5.34c-.47-2.78-2.79-5-5.59-5.34a6.505 6.505 0 0 0-7.27 7.27c.34 2.8 2.56 5.12 5.34 5.59a6.5 6.5 0 0 0 5.34-1.48l.27.28v.79l4.25 4.25c.41.41 1.08.41 1.49 0 .41-.41.41-1.08 0-1.49l-4.24-4.26zm-6 0c-2.49 0-4.5-2.01-4.5-4.5s2.01-4.5 4.5-4.5 4.5 2.01 4.5 4.5-2.01 4.5-4.5 4.5z"/>
    </defs>
    <use fill="#9B9B9B" fill-rule="evenodd" xlink:href="#a"/>
</svg>
